<svg id="svg" version="1.1" xmlns="http://www.w3.org/2000/svg" xmlns:xlink="http://www.w3.org/1999/xlink" width="400" height="252.40706886045092" viewBox="0, 0, 400,252.40706886045092"><g id="svgg"><path id="path0" d="M236.533 172.927 C 235.015 173.163,232.628 173.869,231.583 174.391 C 230.319 175.021,228.667 176.038,228.667 176.186 C 228.667 176.267,228.554 176.333,228.417 176.333 C 228.279 176.333,228.167 176.408,228.167 176.500 C 228.167 176.592,228.085 176.667,227.985 176.667 C 227.811 176.667,226.147 178.284,225.068 179.502 C 223.229 181.578,221.199 185.946,220.405 189.537 C 219.290 194.572,219.224 201.928,220.261 205.598 C 220.392 206.064,220.500 206.605,220.500 206.798 C 220.500 206.992,220.566 207.323,220.646 207.534 C 220.726 207.744,220.920 208.329,221.076 208.833 C 221.472 210.105,221.494 210.157,222.667 212.542 C 223.241 213.710,223.776 214.667,223.856 214.667 C 223.935 214.667,224.000 214.750,224.000 214.851 C 224.000 215.516,228.644 220.167,229.308 220.167 C 229.398 220.167,229.497 220.233,229.528 220.313 C 229.604 220.514,232.061 221.747,233.083 222.096 C 237.952 223.762,244.409 223.469,248.801 221.384 C 251.435 220.134,255.821 216.385,255.831 215.375 C 255.832 215.260,255.900 215.167,255.981 215.167 C 256.062 215.167,256.172 215.035,256.226 214.875 C 256.329 214.566,256.684 213.973,256.848 213.833 C 256.902 213.787,257.190 213.225,257.489 212.583 C 257.788 211.942,258.100 211.287,258.182 211.129 C 258.478 210.558,258.978 208.904,259.556 206.583 C 260.639 202.232,260.650 193.477,259.577 189.417 C 259.456 188.958,259.270 188.208,259.164 187.750 C 258.471 184.759,256.353 180.817,254.182 178.473 C 249.938 173.893,243.440 171.852,236.533 172.927 M265.333 175.750 L 265.333 178.000 265.770 178.000 C 266.010 178.000,266.853 178.122,267.645 178.271 C 268.436 178.421,269.477 178.614,269.958 178.700 L 270.833 178.857 270.833 197.922 L 270.833 216.987 270.208 217.150 C 269.865 217.240,269.283 217.359,268.917 217.415 C 268.550 217.471,267.594 217.642,266.792 217.794 L 265.333 218.071 265.333 220.286 L 265.333 222.500 274.167 222.500 L 283.000 222.500 283.000 220.278 L 283.000 218.056 281.292 217.772 C 280.352 217.616,279.058 217.395,278.417 217.281 L 277.250 217.075 277.210 200.746 L 277.170 184.417 277.709 185.250 C 278.006 185.708,278.305 186.108,278.374 186.139 C 278.443 186.169,278.500 186.268,278.500 186.358 C 278.500 186.448,278.688 186.768,278.917 187.069 C 279.146 187.369,279.333 187.672,279.333 187.742 C 279.333 187.812,279.540 188.142,279.792 188.477 C 280.044 188.811,280.340 189.234,280.451 189.417 C 280.805 190.003,282.198 192.200,283.306 193.917 C 283.897 194.833,284.643 195.996,284.965 196.500 C 285.972 198.076,286.413 198.747,286.500 198.833 C 286.546 198.879,286.728 199.179,286.904 199.500 C 287.081 199.821,287.268 200.121,287.321 200.167 C 287.374 200.213,287.560 200.512,287.736 200.833 C 287.911 201.154,288.267 201.690,288.527 202.024 C 288.787 202.358,289.000 202.688,289.000 202.758 C 289.000 202.828,289.188 203.131,289.417 203.431 C 289.646 203.732,289.833 204.012,289.833 204.055 C 289.833 204.097,290.231 204.721,290.716 205.441 C 291.446 206.523,293.591 209.873,294.255 210.967 C 294.350 211.123,294.717 211.700,295.072 212.250 C 295.427 212.800,295.980 213.662,296.301 214.167 C 297.468 216.002,297.752 216.418,297.875 216.472 C 297.944 216.503,298.000 216.602,298.000 216.692 C 298.000 216.782,298.188 217.101,298.417 217.402 C 298.646 217.702,298.833 218.000,298.833 218.064 C 298.833 218.169,299.466 219.132,299.667 219.333 C 299.835 219.502,300.179 220.092,300.274 220.375 C 300.328 220.535,300.438 220.667,300.519 220.667 C 300.600 220.667,300.667 220.739,300.667 220.828 C 300.667 220.917,300.907 221.332,301.201 221.749 L 301.736 222.507 304.826 222.462 L 307.917 222.417 307.959 200.637 L 308.001 178.857 308.876 178.692 C 309.357 178.601,310.200 178.439,310.750 178.332 C 311.300 178.225,312.106 178.097,312.542 178.048 L 313.333 177.958 313.333 175.729 L 313.333 173.500 304.500 173.500 L 295.667 173.500 295.667 175.750 L 295.667 178.000 296.208 177.999 C 296.506 177.999,297.350 178.108,298.083 178.241 C 298.817 178.374,299.904 178.569,300.500 178.673 C 301.096 178.777,301.602 178.882,301.626 178.904 C 301.649 178.927,301.649 186.244,301.626 195.163 L 301.583 211.379 300.875 210.276 C 300.485 209.669,300.167 209.097,300.167 209.003 C 300.167 208.910,300.100 208.833,300.019 208.833 C 299.938 208.833,299.828 208.702,299.774 208.542 C 299.677 208.251,299.329 207.659,299.163 207.500 C 299.017 207.361,298.444 206.452,298.111 205.833 C 297.939 205.512,297.618 205.011,297.399 204.719 C 297.179 204.428,297.000 204.139,297.000 204.079 C 297.000 204.018,296.831 203.733,296.625 203.446 C 296.223 202.887,295.921 202.402,295.723 202.000 C 295.656 201.862,295.537 201.675,295.460 201.583 C 295.382 201.492,295.063 201.004,294.750 200.500 C 294.437 199.996,294.121 199.508,294.049 199.417 C 293.976 199.325,293.768 198.969,293.587 198.625 C 293.406 198.281,293.208 198.000,293.148 198.000 C 293.088 198.000,292.994 197.869,292.938 197.708 C 292.883 197.548,292.689 197.192,292.507 196.917 C 292.325 196.642,292.056 196.202,291.908 195.939 C 291.760 195.677,291.307 194.978,290.903 194.387 C 290.498 193.796,290.167 193.272,290.167 193.224 C 290.167 193.175,289.998 192.900,289.792 192.613 C 289.287 191.910,289.026 191.475,288.900 191.125 C 288.842 190.965,288.728 190.833,288.647 190.833 C 288.566 190.833,288.500 190.752,288.500 190.653 C 288.500 190.494,287.404 188.717,287.172 188.500 C 287.123 188.454,286.939 188.154,286.763 187.833 C 286.586 187.512,286.399 187.213,286.346 187.167 C 286.293 187.121,286.105 186.821,285.928 186.500 C 285.751 186.179,285.151 185.201,284.595 184.326 C 284.038 183.451,283.494 182.588,283.386 182.409 C 282.747 181.357,280.990 178.579,280.017 177.083 C 279.778 176.717,279.527 176.392,279.458 176.361 C 279.390 176.331,279.333 176.239,279.333 176.157 C 279.333 176.076,278.985 175.444,278.559 174.754 L 277.785 173.500 271.559 173.500 L 265.333 173.500 265.333 175.750 M318.833 175.750 L 318.833 178.000 319.288 178.000 C 319.538 178.000,320.307 178.110,320.996 178.244 C 321.686 178.378,322.719 178.576,323.292 178.683 L 324.333 178.879 324.333 197.933 L 324.333 216.987 323.708 217.150 C 323.365 217.240,322.783 217.358,322.417 217.413 C 322.050 217.467,321.094 217.636,320.292 217.788 L 318.833 218.064 318.833 220.282 L 318.833 222.500 337.500 222.500 L 356.167 222.500 356.167 216.500 L 356.167 210.500 353.417 210.500 L 350.667 210.500 350.667 211.042 C 350.668 211.340,350.554 212.446,350.415 213.500 C 350.276 214.554,350.121 215.848,350.069 216.375 L 349.976 217.333 340.488 217.333 L 331.000 217.333 331.000 208.583 L 331.000 199.833 340.083 199.833 L 349.167 199.833 349.167 197.083 L 349.167 194.333 340.083 194.333 L 331.000 194.333 331.000 186.500 L 331.000 178.667 339.899 178.667 L 348.797 178.667 348.896 179.059 C 348.950 179.275,349.069 180.269,349.160 181.268 C 349.251 182.266,349.401 183.533,349.495 184.083 C 349.588 184.633,349.665 185.140,349.666 185.208 C 349.666 185.277,350.904 185.333,352.417 185.333 L 355.167 185.333 355.167 179.417 L 355.167 173.500 337.000 173.500 L 318.833 173.500 318.833 175.750 M243.114 178.817 C 248.413 180.105,251.489 183.830,252.900 190.667 C 253.762 194.845,253.704 201.809,252.773 205.927 C 251.780 210.317,249.923 213.482,247.250 215.338 C 246.792 215.656,246.379 215.958,246.333 216.009 C 246.287 216.060,245.688 216.301,245.000 216.544 C 238.987 218.669,233.411 217.061,230.045 212.230 C 229.572 211.551,229.484 211.403,228.871 210.250 C 226.130 205.095,225.589 194.982,227.714 188.583 C 228.459 186.339,229.745 183.734,230.208 183.528 C 230.277 183.497,230.333 183.397,230.333 183.306 C 230.333 183.135,232.050 181.381,232.878 180.707 C 235.208 178.806,239.678 177.981,243.114 178.817 " stroke="none" fill="#040404" fill-rule="evenodd"></path><path id="path1" d="M117.193 42.542 C 117.220 44.109,117.286 43.922,117.370 42.041 C 117.396 41.468,117.360 41.000,117.292 41.000 C 117.223 41.000,117.179 41.694,117.193 42.542 M37.963 73.208 C 37.937 90.740,37.977 105.946,38.051 107.000 C 38.208 109.233,38.609 112.885,38.829 114.083 C 38.913 114.542,39.106 115.592,39.258 116.417 C 39.983 120.361,41.302 124.873,42.673 128.100 C 43.673 130.454,44.442 131.927,46.070 134.605 C 47.752 137.373,50.866 140.682,54.583 143.650 C 55.225 144.163,55.788 144.623,55.833 144.673 C 56.021 144.877,59.143 147.167,59.234 147.167 C 59.289 147.167,59.465 147.289,59.625 147.438 C 60.052 147.835,63.693 150.151,64.083 150.274 C 64.267 150.331,64.454 150.434,64.500 150.502 C 64.588 150.634,67.314 152.167,67.460 152.167 C 67.507 152.167,68.154 152.458,68.898 152.814 C 69.641 153.170,70.535 153.588,70.884 153.743 C 72.941 154.656,77.489 156.105,79.500 156.489 C 80.004 156.585,80.979 156.771,81.667 156.903 C 85.590 157.654,92.260 157.661,95.667 156.916 C 96.263 156.786,97.332 156.557,98.042 156.406 C 98.753 156.256,99.376 156.066,99.427 155.983 C 99.478 155.901,99.728 155.833,99.982 155.833 C 100.236 155.833,100.501 155.777,100.569 155.708 C 100.638 155.640,100.744 155.578,100.806 155.572 C 101.448 155.505,105.371 154.046,106.500 153.454 C 107.042 153.170,106.786 153.144,106.125 153.416 C 105.852 153.528,105.833 153.288,105.833 149.705 L 105.833 145.874 105.375 145.688 C 105.123 145.586,104.729 145.484,104.500 145.460 C 104.271 145.436,103.984 145.323,103.863 145.208 C 103.742 145.094,103.498 144.991,103.321 144.979 C 102.869 144.950,102.774 144.927,102.570 144.797 C 102.334 144.646,101.008 144.206,100.583 144.137 C 100.400 144.108,100.212 144.038,100.167 143.983 C 100.121 143.927,99.183 143.525,98.083 143.088 C 95.809 142.186,95.055 141.857,93.440 141.063 C 92.811 140.753,92.199 140.500,92.079 140.500 C 91.959 140.500,91.836 140.432,91.806 140.349 C 91.775 140.266,91.150 139.903,90.417 139.543 C 88.543 138.621,86.386 137.439,85.244 136.707 C 85.064 136.592,84.804 136.447,84.667 136.384 C 84.529 136.322,83.649 135.797,82.710 135.219 C 81.772 134.640,80.934 134.167,80.849 134.167 C 80.764 134.167,80.669 134.110,80.639 134.040 C 80.608 133.971,80.021 133.540,79.333 133.082 C 78.646 132.624,78.046 132.209,78.000 132.160 C 77.954 132.110,77.167 131.513,76.250 130.832 C 74.103 129.238,72.778 128.169,71.799 127.243 C 71.367 126.834,70.979 126.500,70.937 126.500 C 70.838 126.500,69.833 125.499,69.833 125.401 C 69.833 125.317,68.339 123.457,68.171 123.333 C 68.069 123.258,67.040 121.721,66.551 120.913 C 64.900 118.186,63.207 112.948,62.430 108.167 C 61.651 103.370,61.666 104.067,61.666 71.792 L 61.667 41.333 49.838 41.333 L 38.009 41.333 37.963 73.208 M131.298 56.917 C 131.392 57.100,131.683 57.437,131.943 57.666 L 132.417 58.082 131.918 57.499 C 131.128 56.576,131.117 56.566,131.298 56.917 M117.243 78.333 C 117.243 82.137,117.265 83.694,117.291 81.792 C 117.318 79.890,117.318 76.777,117.291 74.875 C 117.265 72.973,117.243 74.529,117.243 78.333 M220.127 75.285 C 220.334 75.324,220.634 75.323,220.794 75.281 C 220.953 75.239,220.783 75.207,220.417 75.209 C 220.050 75.211,219.920 75.245,220.127 75.285 M117.077 93.667 C 117.077 98.296,117.099 100.190,117.125 97.875 C 117.151 95.560,117.151 91.773,117.125 89.458 C 117.099 87.144,117.077 89.037,117.077 93.667 M140.881 103.083 C 140.882 103.542,140.915 103.709,140.953 103.456 C 140.991 103.203,140.990 102.828,140.951 102.623 C 140.911 102.418,140.880 102.625,140.881 103.083 M116.604 106.756 C 116.547 106.905,116.509 107.227,116.519 107.472 C 116.534 107.805,116.571 107.749,116.668 107.250 C 116.806 106.542,116.776 106.308,116.604 106.756 M140.539 108.000 C 140.539 108.321,140.573 108.452,140.615 108.292 C 140.657 108.131,140.657 107.869,140.615 107.708 C 140.573 107.548,140.539 107.679,140.539 108.000 M116.167 109.750 C 116.167 109.979,116.195 110.167,116.231 110.167 C 116.266 110.167,116.330 109.979,116.374 109.750 C 116.418 109.521,116.389 109.333,116.310 109.333 C 116.231 109.333,116.167 109.521,116.167 109.750 M112.891 120.085 C 112.785 120.313,112.765 120.459,112.848 120.408 C 113.068 120.272,113.368 119.666,113.214 119.668 C 113.142 119.669,112.997 119.856,112.891 120.085 M111.594 122.113 C 111.332 122.442,111.217 122.678,111.340 122.637 C 111.607 122.548,112.261 121.705,112.149 121.594 C 112.106 121.551,111.856 121.784,111.594 122.113 M110.333 123.583 C 110.025 123.901,109.826 124.215,109.890 124.279 C 109.955 124.344,110.120 124.236,110.258 124.040 C 110.395 123.844,110.627 123.563,110.774 123.417 C 110.920 123.271,111.007 123.118,110.967 123.078 C 110.927 123.038,110.642 123.265,110.333 123.583 M109.164 124.674 C 108.855 124.912,108.819 124.994,109.021 124.996 C 109.290 125.000,109.777 124.555,109.646 124.424 C 109.609 124.387,109.392 124.499,109.164 124.674 M108.125 125.519 C 107.873 125.707,107.669 125.949,107.672 126.056 C 107.675 126.163,107.776 126.120,107.897 125.961 C 108.018 125.802,108.146 125.696,108.183 125.725 C 108.220 125.754,108.381 125.640,108.542 125.472 C 108.929 125.066,108.697 125.092,108.125 125.519 M107.157 126.231 C 106.801 126.562,104.540 127.736,103.583 128.086 C 103.125 128.254,102.675 128.442,102.583 128.505 C 102.344 128.668,101.321 129.013,100.833 129.095 C 100.604 129.133,100.004 129.272,99.500 129.403 C 97.915 129.816,96.947 130.002,96.000 130.077 C 95.496 130.117,94.558 130.227,93.917 130.321 C 93.275 130.416,92.682 130.495,92.599 130.497 C 92.341 130.502,93.148 131.119,93.713 131.347 C 94.008 131.467,94.287 131.607,94.333 131.659 C 94.379 131.711,94.717 131.902,95.083 132.085 C 95.450 132.267,95.788 132.454,95.833 132.500 C 96.073 132.739,97.050 133.155,97.181 133.074 C 97.265 133.023,97.333 133.048,97.333 133.131 C 97.333 133.276,98.763 134.083,99.022 134.083 C 99.092 134.083,99.244 134.177,99.358 134.292 C 99.473 134.406,99.622 134.500,99.691 134.500 C 99.815 134.500,102.359 135.663,103.192 136.101 C 103.436 136.229,103.773 136.336,103.942 136.339 C 104.112 136.342,104.396 136.454,104.574 136.589 C 104.751 136.723,105.021 136.833,105.173 136.833 C 105.325 136.833,105.690 136.954,105.985 137.101 C 106.280 137.248,106.563 137.326,106.615 137.274 C 106.667 137.222,106.513 137.089,106.272 136.979 L 105.833 136.780 105.833 131.963 C 105.833 128.795,105.890 127.182,106.000 127.250 C 106.092 127.307,106.167 127.279,106.167 127.188 C 106.167 127.097,106.330 126.971,106.529 126.908 C 106.943 126.776,107.599 126.210,107.478 126.089 C 107.433 126.044,107.289 126.108,107.157 126.231 M107.333 137.483 C 107.885 137.789,108.620 137.883,108.250 137.600 C 108.067 137.459,107.729 137.344,107.500 137.344 C 107.189 137.344,107.147 137.379,107.333 137.483 M108.833 137.836 C 108.696 137.923,108.658 137.997,108.750 138.000 C 108.842 138.002,109.097 138.053,109.318 138.112 C 109.602 138.188,109.684 138.162,109.598 138.024 C 109.531 137.916,109.414 137.867,109.336 137.915 C 109.259 137.963,109.170 137.929,109.139 137.840 C 109.104 137.736,108.993 137.735,108.833 137.836 M111.000 138.500 C 111.000 138.592,111.112 138.667,111.250 138.667 C 111.388 138.667,111.500 138.592,111.500 138.500 C 111.500 138.408,111.388 138.333,111.250 138.333 C 111.112 138.333,111.000 138.408,111.000 138.500 M112.333 138.826 C 112.471 138.919,112.727 138.996,112.903 138.997 C 113.329 139.001,113.196 138.905,112.583 138.768 C 112.218 138.687,112.151 138.702,112.333 138.826 M115.042 139.448 C 115.202 139.490,115.465 139.490,115.625 139.448 C 115.785 139.406,115.654 139.372,115.333 139.372 C 115.013 139.372,114.881 139.406,115.042 139.448 M119.125 139.784 C 119.331 139.824,119.669 139.824,119.875 139.784 C 120.081 139.745,119.912 139.712,119.500 139.712 C 119.087 139.712,118.919 139.745,119.125 139.784 M106.240 146.070 C 106.605 146.367,107.000 146.417,107.000 146.167 C 107.000 146.075,106.894 146.000,106.764 146.000 C 106.634 146.000,106.390 145.956,106.222 145.903 C 105.943 145.814,105.944 145.829,106.240 146.070 M107.932 146.499 C 108.100 146.666,109.701 147.021,109.808 146.914 C 109.872 146.850,108.208 146.333,107.936 146.333 C 107.824 146.333,107.823 146.389,107.932 146.499 M110.000 146.989 C 110.000 147.074,110.230 147.138,110.510 147.130 C 110.849 147.120,110.947 147.069,110.802 146.977 C 110.506 146.789,110.000 146.797,110.000 146.989 M112.833 147.397 C 112.833 147.432,113.021 147.497,113.250 147.541 C 113.479 147.585,113.667 147.556,113.667 147.477 C 113.667 147.398,113.479 147.333,113.250 147.333 C 113.021 147.333,112.833 147.362,112.833 147.397 M117.156 147.790 C 117.595 147.843,117.673 147.898,117.489 148.026 C 117.282 148.170,117.282 148.183,117.490 148.127 C 118.040 147.978,117.849 147.667,117.222 147.693 L 116.583 147.720 117.156 147.790 M111.542 150.870 C 111.335 150.970,111.167 151.116,111.167 151.196 C 111.167 151.316,112.075 150.947,112.319 150.729 C 112.469 150.595,111.896 150.699,111.542 150.870 M110.000 151.667 C 109.776 151.836,109.523 151.931,109.437 151.878 C 109.352 151.825,109.335 151.868,109.400 151.974 C 109.501 152.136,110.278 151.887,110.636 151.579 C 110.900 151.352,110.310 151.433,110.000 151.667 M108.782 152.242 C 108.640 152.384,108.447 152.500,108.353 152.500 C 108.073 152.500,107.333 152.876,107.333 153.019 C 107.333 153.091,107.615 153.021,107.958 152.864 C 108.916 152.425,109.257 152.202,109.143 152.088 C 109.086 152.031,108.924 152.100,108.782 152.242 " stroke="none" fill="#241c5c" fill-rule="evenodd"></path><path id="path2" d="M37.915 71.583 C 37.915 88.267,37.934 95.067,37.958 86.695 C 37.982 78.323,37.982 64.673,37.958 56.362 C 37.934 48.050,37.915 54.900,37.915 71.583 M329.208 99.282 C 329.369 99.323,329.631 99.323,329.792 99.282 C 329.952 99.240,329.821 99.205,329.500 99.205 C 329.179 99.205,329.048 99.240,329.208 99.282 M223.301 100.124 C 224.245 100.154,225.745 100.154,226.634 100.124 C 227.523 100.094,226.750 100.070,224.917 100.070 C 223.083 100.070,222.356 100.095,223.301 100.124 M237.289 100.135 C 237.401 100.207,237.462 100.431,237.423 100.633 C 237.384 100.835,237.423 101.000,237.510 101.000 C 237.596 101.000,237.667 101.219,237.667 101.486 C 237.667 101.753,237.745 101.998,237.841 102.030 C 237.936 102.062,238.027 102.256,238.043 102.461 C 238.058 102.666,238.138 102.833,238.220 102.833 C 238.302 102.833,238.326 102.946,238.273 103.083 C 238.220 103.221,238.262 103.333,238.366 103.333 C 238.470 103.333,238.505 103.384,238.444 103.445 C 238.382 103.506,238.435 103.714,238.561 103.906 C 238.791 104.256,239.072 105.275,238.971 105.388 C 238.941 105.422,239.014 105.566,239.133 105.710 C 239.253 105.854,239.388 106.182,239.435 106.439 C 239.482 106.696,239.583 106.984,239.661 107.078 C 239.738 107.173,239.841 107.498,239.888 107.800 C 239.935 108.103,240.073 108.474,240.195 108.624 C 240.355 108.821,240.358 108.862,240.208 108.772 C 239.917 108.597,239.949 108.758,240.268 109.078 C 240.415 109.225,240.547 109.523,240.560 109.740 C 240.573 109.957,240.640 110.100,240.708 110.058 C 240.777 110.015,240.833 110.156,240.833 110.370 C 240.833 110.584,240.951 110.927,241.095 111.132 C 241.238 111.337,241.362 111.726,241.370 111.997 C 241.377 112.267,241.447 112.450,241.523 112.402 C 241.600 112.355,241.616 112.438,241.559 112.587 C 241.500 112.741,241.608 113.064,241.811 113.339 C 242.007 113.603,242.167 113.976,242.167 114.166 C 242.167 114.356,242.279 114.683,242.416 114.892 C 242.553 115.102,242.682 115.474,242.702 115.720 C 242.723 115.966,242.796 116.167,242.864 116.167 C 242.933 116.167,242.946 116.279,242.894 116.417 C 242.841 116.554,242.878 116.667,242.977 116.667 C 243.076 116.667,243.108 116.791,243.050 116.944 C 242.972 117.147,243.003 117.184,243.167 117.083 C 243.330 116.982,243.361 117.020,243.284 117.223 C 243.225 117.376,243.258 117.500,243.358 117.500 C 243.457 117.500,243.502 117.639,243.458 117.810 C 243.413 117.980,243.458 118.261,243.557 118.435 C 243.656 118.608,243.753 118.825,243.773 118.917 C 243.824 119.151,244.482 121.016,244.656 121.417 C 244.735 121.600,244.999 122.350,245.243 123.083 C 245.486 123.817,245.731 124.529,245.787 124.667 C 245.842 124.804,245.901 124.954,245.917 125.000 C 246.080 125.472,246.234 125.827,246.454 126.233 C 246.625 126.550,246.643 126.672,246.507 126.587 C 246.378 126.508,246.397 126.610,246.556 126.854 C 246.698 127.072,246.853 127.438,246.901 127.667 C 246.990 128.093,247.580 129.818,248.497 132.333 C 248.781 133.112,249.270 134.500,249.583 135.417 C 249.895 136.333,250.387 137.721,250.675 138.500 C 250.963 139.279,251.272 140.142,251.363 140.417 C 251.453 140.692,251.585 141.067,251.655 141.250 C 251.799 141.623,252.039 142.311,252.500 143.667 C 252.672 144.171,252.973 144.996,253.170 145.500 C 253.368 146.004,253.588 146.642,253.661 146.917 C 253.733 147.192,253.906 147.717,254.044 148.083 C 254.609 149.583,255.256 151.385,256.087 153.769 C 256.569 155.154,257.044 156.438,257.143 156.622 C 257.241 156.806,257.274 157.004,257.216 157.061 C 257.158 157.119,262.057 157.167,268.103 157.167 L 279.094 157.167 279.705 155.375 C 280.320 153.570,281.222 151.034,282.504 147.500 C 282.887 146.446,283.375 145.058,283.589 144.417 C 283.803 143.775,284.137 142.837,284.332 142.333 C 284.526 141.829,284.941 140.667,285.253 139.750 C 285.566 138.833,286.055 137.446,286.342 136.667 C 286.628 135.887,287.041 134.725,287.259 134.083 C 287.477 133.442,287.886 132.279,288.167 131.500 C 288.704 130.011,289.930 126.543,290.170 125.833 C 290.248 125.604,290.546 124.779,290.834 124.000 C 291.121 123.221,291.539 122.021,291.763 121.333 C 291.986 120.646,292.237 119.933,292.321 119.750 C 292.519 119.316,293.554 116.418,294.999 112.250 C 295.380 111.150,295.793 109.987,295.917 109.667 C 296.579 107.949,297.000 106.715,297.000 106.488 C 297.000 106.348,297.065 106.162,297.144 106.075 C 297.223 105.988,297.557 105.129,297.886 104.167 C 298.216 103.204,298.665 101.912,298.886 101.296 C 299.106 100.680,299.247 100.136,299.199 100.088 C 298.990 99.879,280.490 99.998,280.427 100.208 C 280.393 100.323,280.164 101.092,279.919 101.917 C 279.674 102.742,279.369 103.754,279.242 104.167 C 278.783 105.659,278.036 108.113,277.618 109.500 C 277.146 111.068,276.331 113.747,275.743 115.667 C 275.319 117.051,274.651 119.258,274.230 120.667 C 274.079 121.171,273.861 121.883,273.744 122.250 C 273.628 122.617,273.340 123.554,273.105 124.333 C 272.870 125.112,272.480 126.388,272.239 127.167 C 271.998 127.946,271.326 130.158,270.747 132.083 C 268.818 138.493,268.334 140.055,268.254 140.135 C 268.159 140.230,268.235 140.453,267.105 136.750 C 266.601 135.100,265.983 133.075,265.731 132.250 C 265.478 131.425,265.257 130.675,265.238 130.583 C 265.219 130.492,265.015 129.817,264.784 129.083 C 264.554 128.350,264.124 126.962,263.828 126.000 C 263.533 125.037,263.107 123.650,262.882 122.917 C 262.657 122.183,262.292 120.983,262.071 120.250 C 261.850 119.517,261.600 118.692,261.517 118.417 C 261.143 117.184,260.263 114.279,259.826 112.833 C 259.563 111.962,258.978 110.050,258.527 108.583 C 258.075 107.117,257.461 105.092,257.161 104.083 C 256.861 103.075,256.455 101.763,256.259 101.167 L 255.903 100.083 246.493 100.043 C 241.318 100.021,237.176 100.063,237.289 100.135 M314.083 103.000 C 313.726 103.237,313.666 103.331,313.875 103.332 C 314.035 103.333,314.167 103.258,314.167 103.167 C 314.167 103.075,314.279 103.000,314.417 103.000 C 314.554 103.000,314.667 102.925,314.667 102.833 C 314.667 102.615,314.664 102.615,314.083 103.000 M312.833 103.750 C 312.592 103.888,312.522 103.988,312.667 103.989 C 312.804 103.989,313.062 103.879,313.240 103.745 C 313.652 103.433,313.381 103.437,312.833 103.750 M310.417 105.531 L 310.083 105.877 310.449 105.687 C 310.834 105.488,311.114 105.160,310.885 105.177 C 310.811 105.182,310.600 105.342,310.417 105.531 M308.829 106.961 C 307.206 108.657,306.556 109.399,306.832 109.240 C 306.969 109.162,306.806 109.372,306.471 109.707 C 306.135 110.042,305.812 110.470,305.753 110.658 C 305.693 110.846,305.570 111.000,305.479 111.000 C 305.388 111.000,305.357 111.070,305.410 111.156 C 305.464 111.242,305.390 111.378,305.248 111.458 C 304.942 111.629,302.637 116.151,302.757 116.345 C 302.802 116.417,302.763 116.524,302.669 116.582 C 302.576 116.639,302.500 116.869,302.500 117.093 C 302.500 117.317,302.434 117.500,302.352 117.500 C 302.271 117.500,302.166 117.706,302.119 117.958 C 302.071 118.210,301.846 119.129,301.617 120.000 C 299.911 126.496,300.576 136.935,302.983 141.424 C 303.176 141.784,303.333 142.149,303.333 142.234 C 303.333 142.320,303.465 142.540,303.625 142.724 C 303.785 142.907,303.825 143.004,303.713 142.938 C 303.601 142.873,303.671 143.123,303.869 143.493 C 304.067 143.864,304.294 144.167,304.374 144.167 C 304.454 144.167,304.477 144.236,304.425 144.320 C 304.373 144.404,304.443 144.586,304.582 144.725 C 304.720 144.863,304.833 145.057,304.833 145.155 C 304.833 145.253,304.913 145.333,305.010 145.333 C 305.107 145.333,305.146 145.399,305.096 145.479 C 305.047 145.559,305.192 145.826,305.420 146.071 C 305.647 146.316,305.833 146.572,305.833 146.638 C 305.833 146.996,308.653 150.164,309.667 150.946 C 309.889 151.117,309.917 148.596,309.917 128.486 C 309.917 116.027,309.915 105.833,309.912 105.833 C 309.910 105.833,309.423 106.341,308.829 106.961 M318.154 132.875 C 318.052 133.209,318.057 133.516,318.167 133.583 C 318.242 133.630,318.285 133.537,318.261 133.376 C 318.222 133.112,318.454 133.075,320.650 132.993 L 323.083 132.903 320.625 132.868 C 319.273 132.849,318.161 132.852,318.154 132.875 M313.500 153.787 C 313.500 153.860,313.650 154.013,313.833 154.128 C 314.018 154.243,314.167 154.264,314.167 154.174 C 314.167 154.085,314.017 153.931,313.833 153.833 C 313.650 153.735,313.500 153.715,313.500 153.787 " stroke="none" fill="#243484" fill-rule="evenodd"></path><path id="path3" d="M117.268 43.888 C 117.210 45.370,117.174 58.771,117.188 73.667 C 117.202 88.563,117.153 101.425,117.078 102.250 C 117.004 103.075,116.937 104.181,116.930 104.708 C 116.923 105.235,116.870 105.666,116.812 105.667 C 116.755 105.667,116.726 105.890,116.750 106.163 C 116.773 106.435,116.733 106.979,116.661 107.371 C 116.588 107.763,116.484 108.496,116.428 109.000 C 116.373 109.504,116.248 110.217,116.150 110.583 C 116.052 110.950,115.948 111.438,115.919 111.667 C 115.889 111.896,115.701 112.683,115.501 113.417 C 115.300 114.150,115.102 114.929,115.061 115.147 C 115.019 115.366,114.875 115.759,114.739 116.021 C 114.604 116.282,114.500 116.516,114.507 116.540 C 114.534 116.621,114.294 117.248,113.965 117.958 C 113.785 118.347,113.623 118.760,113.606 118.875 C 113.588 118.989,113.503 119.196,113.417 119.333 C 113.330 119.471,113.244 119.685,113.225 119.810 C 113.206 119.934,113.035 120.202,112.845 120.404 C 112.655 120.606,112.500 120.898,112.500 121.052 C 112.500 121.207,112.433 121.333,112.351 121.333 C 112.270 121.333,112.156 121.519,112.099 121.747 C 112.042 121.974,111.771 122.326,111.498 122.528 C 111.224 122.730,111.000 122.994,111.000 123.115 C 111.000 123.235,110.944 123.334,110.875 123.334 C 110.806 123.334,110.600 123.559,110.417 123.835 C 110.233 124.110,109.997 124.302,109.891 124.262 C 109.786 124.222,109.662 124.334,109.616 124.511 C 109.569 124.687,109.393 124.883,109.224 124.945 C 109.055 125.007,108.748 125.237,108.542 125.455 C 108.335 125.672,108.167 125.795,108.167 125.727 C 108.167 125.659,108.057 125.749,107.922 125.926 C 107.787 126.104,107.675 126.190,107.672 126.116 C 107.669 126.043,107.498 126.164,107.292 126.385 C 107.085 126.606,106.748 126.840,106.542 126.905 C 106.335 126.969,106.167 127.097,106.167 127.188 C 106.167 127.279,106.092 127.307,106.000 127.250 C 105.890 127.182,105.833 128.791,105.833 131.952 L 105.833 136.758 106.441 137.085 C 106.776 137.265,107.221 137.390,107.431 137.362 C 107.641 137.335,108.004 137.438,108.238 137.591 C 108.473 137.744,108.777 137.827,108.915 137.774 C 109.054 137.721,109.167 137.754,109.167 137.848 C 109.167 137.943,109.236 137.977,109.322 137.924 C 109.407 137.871,109.525 137.905,109.583 138.000 C 109.642 138.095,109.754 138.132,109.833 138.083 C 109.912 138.035,110.022 138.068,110.077 138.157 C 110.132 138.246,110.280 138.279,110.405 138.231 C 110.530 138.183,110.678 138.217,110.733 138.306 C 110.789 138.396,110.984 138.430,111.167 138.382 C 111.366 138.330,111.500 138.377,111.500 138.498 C 111.500 138.611,111.612 138.659,111.750 138.606 C 111.888 138.554,112.000 138.588,112.000 138.682 C 112.000 138.776,112.062 138.815,112.138 138.767 C 112.215 138.720,112.683 138.792,113.180 138.926 C 113.677 139.060,114.346 139.208,114.667 139.255 C 114.987 139.302,115.513 139.385,115.833 139.441 C 116.154 139.497,116.604 139.574,116.833 139.612 C 120.136 140.160,125.329 139.361,128.292 137.849 C 131.487 136.219,134.489 132.420,136.197 127.850 C 137.586 124.130,138.462 121.098,139.258 117.250 C 140.047 113.438,140.542 109.322,140.771 104.667 C 140.921 101.602,140.903 101.627,142.000 103.041 C 142.504 103.691,143.179 104.538,143.500 104.924 C 144.370 105.971,144.915 106.657,145.618 107.586 C 145.965 108.045,146.378 108.570,146.535 108.752 C 146.789 109.047,149.268 112.125,150.494 113.667 C 151.258 114.628,153.145 116.975,154.580 118.750 C 155.322 119.667,156.283 120.881,156.717 121.449 C 157.150 122.017,157.598 122.579,157.711 122.699 C 158.001 123.006,159.186 124.474,159.583 125.020 C 159.767 125.271,160.813 126.588,161.909 127.947 C 163.005 129.305,164.618 131.314,165.493 132.412 C 166.367 133.509,167.208 134.559,167.360 134.745 C 168.221 135.797,170.511 138.671,171.083 139.418 C 171.868 140.442,175.008 144.363,175.619 145.083 C 175.853 145.358,176.388 146.033,176.808 146.583 C 177.229 147.133,177.670 147.684,177.789 147.806 C 177.908 147.929,178.210 148.302,178.461 148.636 C 178.712 148.970,179.041 149.395,179.193 149.580 C 180.773 151.508,183.603 155.023,184.333 155.965 L 185.250 157.146 191.792 157.156 L 198.333 157.167 198.333 99.250 L 198.333 41.333 186.750 41.333 L 175.167 41.333 175.167 74.086 L 175.167 106.838 173.878 105.377 C 173.170 104.574,172.551 103.879,172.503 103.833 C 172.456 103.787,171.931 103.188,171.337 102.500 C 170.742 101.813,170.214 101.212,170.163 101.167 C 170.111 101.121,169.592 100.521,169.008 99.833 C 168.425 99.146,167.415 97.994,166.765 97.274 C 165.225 95.567,165.056 95.375,164.167 94.324 C 163.754 93.837,163.240 93.246,163.024 93.011 C 162.808 92.776,162.208 92.097,161.690 91.504 C 161.173 90.910,160.410 90.047,159.994 89.587 C 159.578 89.127,158.753 88.189,158.160 87.503 C 156.847 85.981,156.837 85.970,153.560 82.245 C 152.106 80.592,150.468 78.728,149.920 78.102 C 149.371 77.477,148.771 76.799,148.586 76.595 C 148.058 76.013,146.287 74.002,145.482 73.068 C 145.079 72.601,144.365 71.776,143.895 71.235 C 143.425 70.693,142.825 69.998,142.562 69.691 C 142.299 69.383,141.821 68.851,141.500 68.508 C 140.931 67.900,140.007 66.847,138.719 65.339 C 138.369 64.930,137.708 64.175,137.250 63.662 C 136.792 63.149,136.196 62.472,135.926 62.157 C 135.657 61.841,134.494 60.530,133.343 59.243 C 132.192 57.956,130.899 56.493,130.471 55.993 C 130.042 55.493,129.494 54.858,129.251 54.583 C 129.009 54.308,128.460 53.671,128.031 53.167 C 127.602 52.663,126.863 51.837,126.389 51.333 C 125.914 50.829,125.289 50.117,124.999 49.751 C 124.709 49.385,124.422 49.048,124.361 49.001 C 124.300 48.955,123.762 48.354,123.166 47.667 C 122.571 46.980,122.008 46.335,121.917 46.234 C 121.825 46.134,121.188 45.397,120.500 44.598 C 119.813 43.799,118.828 42.706,118.311 42.169 L 117.373 41.192 117.268 43.888 M217.667 75.352 C 211.022 76.116,207.122 83.252,210.125 89.151 C 211.118 91.102,213.912 93.412,215.694 93.755 C 215.889 93.793,216.319 93.915,216.649 94.027 C 218.138 94.531,223.700 94.120,224.098 93.477 C 224.146 93.398,224.321 93.333,224.485 93.333 C 224.649 93.333,225.094 93.108,225.474 92.833 C 225.853 92.558,226.228 92.333,226.307 92.333 C 227.049 92.333,229.342 88.926,229.754 87.212 C 230.060 85.938,230.053 82.655,229.744 82.159 C 229.661 82.026,229.576 81.804,229.555 81.667 C 229.492 81.246,228.785 79.833,228.638 79.833 C 228.562 79.833,228.500 79.755,228.500 79.660 C 228.500 79.456,228.416 79.343,227.489 78.292 C 227.105 77.856,226.722 77.500,226.638 77.500 C 226.555 77.500,226.320 77.340,226.118 77.145 C 225.916 76.950,225.262 76.563,224.667 76.286 C 223.689 75.831,223.129 75.659,221.833 75.415 C 221.114 75.280,218.623 75.242,217.667 75.352 M328.208 99.282 C 328.369 99.323,328.631 99.323,328.792 99.282 C 328.952 99.240,328.821 99.205,328.500 99.205 C 328.179 99.205,328.048 99.240,328.208 99.282 M330.458 99.287 C 330.756 99.324,331.244 99.324,331.542 99.287 C 331.840 99.250,331.596 99.220,331.000 99.220 C 330.404 99.220,330.160 99.250,330.458 99.287 M210.792 100.092 C 210.723 100.164,210.667 113.035,210.667 128.696 L 210.667 157.170 219.542 157.126 L 228.417 157.083 228.458 128.583 L 228.500 100.083 219.708 100.023 C 214.873 99.989,210.860 100.020,210.792 100.092 M237.129 100.432 C 237.221 100.912,237.419 100.962,237.453 100.513 C 237.466 100.338,237.382 100.157,237.265 100.112 C 237.117 100.055,237.076 100.154,237.129 100.432 M237.336 101.125 C 237.343 101.490,237.662 101.733,237.664 101.375 C 237.666 101.169,237.592 101.000,237.500 101.000 C 237.408 101.000,237.334 101.056,237.336 101.125 M37.881 102.583 C 37.882 103.042,37.915 103.209,37.953 102.956 C 37.991 102.703,37.990 102.328,37.951 102.123 C 37.911 101.918,37.880 102.125,37.881 102.583 M237.785 102.333 C 237.833 102.517,237.931 102.667,238.004 102.667 C 238.076 102.667,238.096 102.517,238.048 102.333 C 238.000 102.150,237.902 102.000,237.829 102.000 C 237.757 102.000,237.737 102.150,237.785 102.333 M238.250 103.625 C 238.315 103.785,238.480 104.235,238.617 104.625 C 238.753 105.014,238.930 105.373,239.009 105.422 C 239.184 105.531,238.900 104.583,238.576 103.982 C 238.447 103.742,238.390 103.499,238.449 103.440 C 238.508 103.381,238.460 103.333,238.343 103.333 C 238.207 103.333,238.174 103.438,238.250 103.625 M239.008 105.750 C 239.004 105.998,239.301 106.421,239.406 106.316 C 239.456 106.266,239.387 106.081,239.254 105.904 C 239.120 105.728,239.009 105.658,239.008 105.750 M239.584 107.354 C 239.757 107.925,239.973 108.103,239.876 107.594 C 239.831 107.356,239.719 107.116,239.629 107.060 C 239.526 106.997,239.510 107.108,239.584 107.354 M240.340 109.356 C 240.336 109.506,240.445 109.843,240.582 110.106 C 240.903 110.720,240.908 110.377,240.590 109.644 C 240.456 109.336,240.343 109.206,240.340 109.356 M240.833 110.953 C 240.833 111.060,240.910 111.194,241.003 111.252 C 241.096 111.309,241.136 111.415,241.091 111.487 C 241.047 111.559,241.117 111.760,241.247 111.934 C 241.469 112.231,241.477 112.225,241.382 111.833 C 241.267 111.356,240.833 110.661,240.833 110.953 M241.836 113.698 C 241.841 114.117,242.161 114.462,242.164 114.052 C 242.166 113.851,242.092 113.640,242.000 113.583 C 241.908 113.527,241.834 113.579,241.836 113.698 M242.352 115.125 C 242.541 115.691,242.667 115.820,242.667 115.449 C 242.667 115.329,242.555 115.085,242.419 114.907 C 242.192 114.611,242.187 114.629,242.352 115.125 M105.833 149.681 C 105.833 153.288,105.852 153.528,106.125 153.413 C 106.285 153.346,106.603 153.251,106.830 153.202 C 107.058 153.153,107.344 153.013,107.467 152.890 C 107.590 152.767,107.890 152.617,108.135 152.555 C 108.380 152.494,108.681 152.343,108.803 152.220 C 108.926 152.097,109.095 152.039,109.179 152.091 C 109.263 152.143,109.576 152.003,109.874 151.780 C 110.172 151.558,110.510 151.410,110.625 151.452 C 110.740 151.494,110.833 151.434,110.833 151.319 C 110.833 151.205,110.880 151.158,110.937 151.214 C 110.993 151.271,111.152 151.205,111.290 151.067 C 111.428 150.930,111.754 150.774,112.016 150.722 C 112.278 150.669,112.578 150.523,112.683 150.397 C 112.788 150.270,112.975 150.167,113.098 150.167 C 113.334 150.167,114.524 149.652,114.667 149.488 C 114.712 149.435,114.862 149.339,115.000 149.274 C 117.013 148.317,117.729 147.854,117.250 147.818 C 116.975 147.798,116.563 147.762,116.333 147.738 C 115.669 147.670,112.961 147.460,112.458 147.437 C 112.206 147.426,112.000 147.352,112.000 147.272 C 112.000 147.193,111.850 147.167,111.667 147.215 C 111.484 147.263,111.298 147.244,111.254 147.174 C 111.211 147.103,110.910 147.074,110.587 147.110 C 110.264 147.145,110.000 147.117,110.000 147.046 C 110.000 146.975,109.700 146.896,109.333 146.871 C 108.967 146.846,108.461 146.740,108.209 146.635 C 107.956 146.530,107.712 146.437,107.667 146.428 C 107.621 146.419,107.496 146.356,107.390 146.289 C 107.284 146.221,107.077 146.212,106.930 146.268 C 106.784 146.324,106.477 146.248,106.249 146.098 L 105.833 145.826 105.833 149.681 M329.213 158.123 C 329.652 158.157,330.327 158.157,330.713 158.122 C 331.100 158.087,330.742 158.059,329.917 158.059 C 329.092 158.060,328.775 158.088,329.213 158.123 " stroke="none" fill="#24286f" fill-rule="evenodd"></path><path id="path4" d="M37.748 72.417 C 37.748 89.558,37.768 96.546,37.792 87.945 C 37.816 79.344,37.816 65.319,37.792 56.778 C 37.768 48.238,37.748 55.275,37.748 72.417 M324.780 99.533 C 322.482 99.852,321.834 99.995,319.833 100.622 C 319.054 100.866,318.358 101.070,318.286 101.074 C 318.213 101.079,318.101 101.158,318.036 101.250 C 317.970 101.342,317.729 101.441,317.500 101.472 C 317.271 101.502,316.866 101.633,316.599 101.763 C 316.333 101.894,315.996 102.001,315.849 102.003 C 315.617 102.005,315.615 102.025,315.833 102.167 C 316.062 102.314,315.790 102.385,315.237 102.322 C 315.185 102.316,315.007 102.466,314.843 102.656 C 314.679 102.845,314.459 103.000,314.355 103.000 C 314.252 103.000,314.167 103.075,314.167 103.167 C 314.167 103.258,313.967 103.333,313.722 103.333 C 313.478 103.333,313.327 103.382,313.386 103.442 C 313.518 103.573,313.003 103.987,312.699 103.995 C 312.458 104.001,311.161 104.963,310.950 105.292 C 310.877 105.406,310.595 105.615,310.324 105.755 L 309.831 106.010 309.874 128.574 C 309.912 148.602,309.889 151.119,309.667 150.967 C 309.529 150.873,309.679 151.038,310.000 151.332 C 310.321 151.627,310.824 151.973,311.119 152.101 C 311.414 152.228,311.738 152.489,311.840 152.679 C 311.945 152.876,312.127 152.987,312.261 152.936 C 312.392 152.885,312.478 152.935,312.456 153.048 C 312.435 153.159,312.551 153.251,312.715 153.251 C 312.880 153.252,313.080 153.359,313.160 153.490 C 313.241 153.620,313.440 153.746,313.604 153.770 C 313.767 153.794,314.042 153.987,314.215 154.199 C 314.388 154.410,314.473 154.471,314.405 154.333 C 314.337 154.196,314.518 154.304,314.808 154.573 C 315.097 154.842,315.333 155.002,315.333 154.927 C 315.333 154.853,315.447 154.887,315.586 155.002 C 315.725 155.118,316.007 155.230,316.211 155.252 C 316.840 155.318,316.857 155.327,316.733 155.542 C 316.667 155.656,316.666 155.703,316.730 155.646 C 316.794 155.589,317.388 155.762,318.048 156.031 C 321.973 157.629,330.085 158.572,333.583 157.838 C 333.950 157.761,334.640 157.653,335.116 157.599 C 336.303 157.464,339.004 156.774,340.083 156.331 C 340.358 156.218,340.771 156.050,341.000 155.959 C 341.229 155.868,341.616 155.689,341.859 155.563 C 342.102 155.437,342.396 155.333,342.513 155.333 C 342.629 155.333,342.842 155.233,342.987 155.111 C 343.132 154.988,343.512 154.786,343.833 154.660 C 344.154 154.535,344.890 154.110,345.469 153.716 C 346.048 153.322,346.555 153.000,346.596 153.000 C 347.028 153.000,350.481 149.762,351.608 148.299 C 352.053 147.722,352.459 147.212,352.511 147.167 C 352.765 146.942,354.375 144.311,354.755 143.500 C 354.905 143.179,355.104 142.776,355.196 142.603 C 355.449 142.129,356.443 139.325,356.576 138.708 L 356.693 138.167 347.291 138.167 L 337.889 138.167 337.423 139.058 C 335.951 141.871,332.707 143.656,329.053 143.664 C 327.781 143.666,325.539 143.315,325.106 143.045 C 325.002 142.980,324.791 142.907,324.637 142.883 C 322.908 142.613,319.000 138.421,319.000 136.835 C 319.000 136.742,318.925 136.667,318.833 136.667 C 318.742 136.667,318.682 136.610,318.701 136.542 C 318.719 136.473,318.629 135.892,318.500 135.250 C 318.371 134.608,318.283 134.019,318.305 133.941 C 318.327 133.862,318.249 133.679,318.131 133.534 C 317.951 133.311,317.956 133.293,318.167 133.417 C 318.382 133.544,318.385 133.525,318.188 133.282 C 317.897 132.923,315.414 132.958,338.023 132.998 L 357.796 133.033 357.918 130.268 C 358.260 122.517,357.072 117.094,353.860 111.750 C 352.481 109.456,348.660 105.167,347.995 105.167 C 347.915 105.167,347.790 105.063,347.717 104.937 C 347.430 104.442,344.089 102.514,341.917 101.590 C 337.177 99.573,330.363 98.755,324.780 99.533 M333.180 113.976 C 337.166 115.353,339.482 118.095,339.783 121.792 L 339.881 123.000 329.107 123.000 C 316.923 123.000,318.111 123.160,318.590 121.583 C 318.729 121.125,318.835 120.750,318.826 120.750 C 318.817 120.750,318.895 120.525,319.000 120.250 C 319.105 119.975,319.196 119.712,319.203 119.667 C 319.209 119.621,319.392 119.304,319.608 118.962 C 319.823 118.620,320.000 118.257,320.000 118.156 C 320.000 118.056,320.623 117.351,321.385 116.592 C 323.102 114.878,324.706 114.048,327.167 113.598 C 328.221 113.406,332.264 113.660,333.180 113.976 " stroke="none" fill="#24348d" fill-rule="evenodd"></path></g></svg>