<svg id="svg" version="1.1" xmlns="http://www.w3.org/2000/svg" xmlns:xlink="http://www.w3.org/1999/xlink" width="400" height="400" viewBox="0, 0, 400,400"><g id="svgg"><path id="path2" d="M115.247 163.333 C 115.247 171.721,115.267 175.152,115.292 170.958 C 115.316 166.765,115.316 159.902,115.292 155.708 C 115.267 151.515,115.247 154.946,115.247 163.333 M265.552 178.824 C 257.221 180.143,252.270 187.499,253.486 196.750 C 254.687 205.884,263.287 211.380,272.667 209.009 C 277.358 207.823,281.989 203.442,282.613 199.602 L 282.710 199.000 277.799 199.000 L 272.887 199.000 272.701 199.408 C 270.584 204.054,262.552 201.797,262.502 196.542 C 262.500 196.377,264.690 196.333,272.902 196.333 L 283.303 196.333 283.421 194.917 C 284.287 184.525,276.103 177.154,265.552 178.824 M246.625 179.124 L 245.500 179.182 245.514 188.883 C 245.525 197.248,245.559 198.515,245.756 198.083 C 245.882 197.808,245.988 197.452,245.992 197.292 C 245.997 197.131,246.079 197.000,246.177 197.000 C 246.274 197.000,246.316 196.941,246.272 196.868 C 246.227 196.796,246.291 196.515,246.414 196.243 C 246.538 195.972,246.769 195.338,246.929 194.833 C 247.089 194.329,247.329 193.654,247.463 193.333 C 247.597 193.012,247.701 192.713,247.694 192.667 C 247.688 192.621,247.798 192.408,247.938 192.194 C 248.078 191.980,248.157 191.768,248.113 191.724 C 248.069 191.680,248.220 191.182,248.450 190.617 C 248.679 190.052,248.894 189.453,248.926 189.286 C 248.958 189.119,249.102 188.747,249.245 188.459 C 249.389 188.171,249.546 187.709,249.595 187.433 C 249.644 187.156,249.747 186.852,249.825 186.757 C 249.902 186.661,250.043 186.321,250.137 186.000 C 250.232 185.679,250.547 184.779,250.837 184.000 C 251.128 183.221,251.425 182.396,251.498 182.167 C 251.572 181.938,251.863 181.131,252.145 180.375 L 252.658 179.000 250.204 179.033 C 248.854 179.051,247.244 179.092,246.625 179.124 M270.674 186.488 C 272.449 187.162,273.631 188.617,273.900 190.458 L 274.004 191.167 268.267 191.167 L 262.531 191.167 262.832 190.172 C 263.821 186.905,267.377 185.235,270.674 186.488 " stroke="none" fill="#243c90" fill-rule="evenodd"></path><path id="path3" d="M126.125 148.287 C 126.423 148.324,126.910 148.324,127.208 148.287 C 127.506 148.250,127.263 148.220,126.667 148.220 C 126.071 148.220,125.827 148.250,126.125 148.287 M156.953 165.208 C 156.878 184.058,156.896 183.724,155.743 187.250 C 154.221 191.901,150.832 194.349,145.117 194.926 C 143.734 195.066,143.710 195.044,146.955 196.651 C 154.447 200.360,160.404 200.918,163.916 198.239 C 166.226 196.477,168.452 190.842,169.080 185.167 C 169.162 184.423,169.475 180.618,169.495 180.121 C 169.498 180.051,170.255 180.932,171.177 182.080 C 172.099 183.228,172.896 184.167,172.947 184.167 C 172.998 184.167,172.769 183.835,172.437 183.430 L 171.833 182.694 171.833 173.910 C 171.833 166.121,171.862 165.149,172.083 165.333 C 172.489 165.670,172.370 165.408,171.875 164.875 C 171.623 164.603,171.004 163.905,170.500 163.322 C 169.424 162.079,168.286 160.785,168.164 160.667 C 168.014 160.521,162.321 154.017,160.439 151.843 C 158.486 149.585,157.193 148.167,157.087 148.167 C 157.051 148.167,156.990 155.835,156.953 165.208 M172.500 165.704 C 172.500 165.746,172.695 165.999,172.933 166.266 C 173.221 166.589,173.307 166.635,173.192 166.403 C 173.026 166.072,172.500 165.540,172.500 165.704 M174.833 168.417 C 175.144 168.737,175.436 169.000,175.482 169.000 C 175.528 169.000,175.311 168.737,175.000 168.417 C 174.689 168.096,174.397 167.833,174.351 167.833 C 174.305 167.833,174.522 168.096,174.833 168.417 M215.374 193.956 L 215.333 208.995 210.708 209.042 L 206.083 209.089 210.714 209.128 C 214.293 209.158,215.362 209.119,215.423 208.958 C 215.467 208.844,215.483 202.037,215.459 193.833 L 215.415 178.917 215.374 193.956 M129.180 196.421 C 129.166 206.012,129.149 205.833,130.059 205.833 C 130.182 205.833,130.417 205.983,130.583 206.167 C 130.749 206.350,130.993 206.500,131.125 206.500 C 131.257 206.500,131.564 206.606,131.808 206.735 C 132.604 207.158,134.181 207.838,134.468 207.882 C 134.623 207.907,134.827 207.974,134.920 208.033 C 135.076 208.130,137.236 208.678,138.417 208.919 C 143.182 209.892,148.179 208.822,155.062 205.354 C 157.637 204.057,157.632 204.135,155.167 203.925 C 151.090 203.578,144.866 201.146,139.110 197.651 C 136.682 196.177,135.613 195.445,134.321 194.375 C 134.072 194.169,133.813 194.000,133.745 194.000 C 133.579 194.000,132.194 192.565,131.628 191.806 C 131.377 191.470,131.058 191.082,130.920 190.944 C 130.781 190.805,130.592 190.517,130.499 190.304 C 130.405 190.091,130.181 189.672,130.001 189.374 C 129.820 189.075,129.679 188.812,129.687 188.790 C 129.695 188.768,129.587 188.487,129.448 188.167 C 129.216 187.634,129.193 188.354,129.180 196.421 M231.458 209.123 C 232.031 209.156,232.969 209.156,233.542 209.123 C 234.115 209.091,233.646 209.064,232.500 209.064 C 231.354 209.064,230.885 209.091,231.458 209.123 " stroke="none" fill="#242464" fill-rule="evenodd"></path><path id="path4" d="M209.316 166.145 C 207.897 166.448,206.494 167.566,205.838 168.918 C 205.401 169.818,205.213 172.052,205.540 172.458 C 205.632 172.573,205.659 172.667,205.599 172.667 C 205.385 172.667,206.024 173.683,206.692 174.405 C 209.047 176.951,214.169 176.314,215.767 173.278 C 216.223 172.412,216.282 170.058,215.871 169.130 C 214.863 166.852,212.037 165.565,209.316 166.145 M206.167 194.000 L 206.167 209.000 210.750 209.000 L 215.333 209.000 215.333 194.000 L 215.333 179.000 210.750 179.000 L 206.167 179.000 206.167 194.000 M220.000 179.128 C 220.000 179.202,220.156 179.709,220.346 180.256 C 221.143 182.550,223.542 189.332,223.910 190.333 C 224.130 190.929,225.183 193.892,226.250 196.917 C 227.318 199.942,228.374 202.923,228.596 203.542 C 229.653 206.485,229.832 206.985,230.167 207.932 L 230.526 208.948 233.540 209.057 C 239.833 209.285,241.963 209.219,242.083 208.792 C 242.140 208.585,242.252 208.267,242.330 208.083 C 242.409 207.900,242.786 206.850,243.170 205.750 C 244.646 201.511,245.219 199.899,245.421 199.417 C 245.747 198.635,245.892 198.030,245.680 198.333 C 245.557 198.509,245.504 195.707,245.503 188.883 L 245.500 179.182 246.625 179.124 C 247.244 179.092,246.648 179.051,245.302 179.033 C 243.955 179.015,242.812 179.066,242.762 179.147 C 242.712 179.228,242.367 180.297,241.996 181.522 C 240.889 185.176,240.317 187.044,240.088 187.750 C 239.969 188.117,239.591 189.354,239.248 190.500 C 238.905 191.646,238.147 194.146,237.562 196.056 C 236.978 197.966,236.500 199.635,236.500 199.765 C 236.500 199.894,236.435 200.000,236.357 200.000 C 236.226 200.000,236.078 199.578,235.422 197.333 C 235.301 196.921,234.925 195.683,234.586 194.583 C 233.289 190.380,231.440 184.310,230.676 181.750 L 229.881 179.083 224.941 179.039 C 222.223 179.015,220.000 179.055,220.000 179.128 " stroke="none" fill="#2c2d75" fill-rule="evenodd"></path><path id="path0" d="M115.333 165.220 C 115.333 175.674,115.398 182.815,115.501 183.613 C 116.762 193.447,119.195 198.402,124.750 202.447 C 125.300 202.847,125.974 203.362,126.249 203.591 C 126.523 203.820,126.954 204.099,127.207 204.211 C 127.460 204.323,127.667 204.471,127.667 204.541 C 127.667 204.610,127.779 204.667,127.917 204.667 C 128.054 204.667,128.167 204.737,128.167 204.822 C 128.167 204.908,128.330 205.029,128.529 205.092 C 128.728 205.156,129.041 205.347,129.225 205.519 C 129.409 205.690,129.597 205.792,129.642 205.747 C 129.688 205.701,129.598 205.570,129.442 205.456 C 129.180 205.264,129.162 204.566,129.204 196.291 C 129.229 191.364,129.189 187.333,129.115 187.333 C 129.041 187.333,129.026 187.260,129.081 187.170 C 129.137 187.080,129.107 186.867,129.016 186.696 C 128.856 186.398,128.707 185.811,128.601 185.067 C 128.574 184.875,128.505 184.643,128.448 184.551 C 128.391 184.459,128.308 184.053,128.263 183.650 C 128.218 183.247,128.104 182.242,128.010 181.417 C 127.905 180.496,127.838 173.797,127.836 164.083 L 127.833 148.250 121.583 148.190 L 115.333 148.130 115.333 165.220 M206.080 194.000 C 206.080 202.296,206.100 205.690,206.125 201.542 C 206.150 197.394,206.150 190.606,206.125 186.458 C 206.100 182.310,206.080 185.704,206.080 194.000 M219.583 217.324 C 214.226 218.216,211.058 222.710,210.875 229.676 C 210.641 238.544,214.482 243.634,221.428 243.661 C 228.330 243.688,232.061 239.106,232.077 230.583 C 232.095 221.245,227.205 216.055,219.583 217.324 M234.833 218.811 L 234.833 219.963 235.375 220.059 C 235.673 220.112,236.310 220.205,236.792 220.266 L 237.667 220.376 237.667 230.426 L 237.667 240.476 236.708 240.663 C 236.181 240.766,235.544 240.890,235.292 240.938 C 234.844 241.024,234.833 241.054,234.833 242.180 L 234.833 243.333 239.500 243.333 L 244.167 243.333 244.167 242.181 L 244.167 241.029 243.458 240.922 C 243.069 240.863,242.356 240.739,241.875 240.646 L 241.000 240.476 241.000 231.988 C 241.000 227.320,241.032 223.500,241.072 223.500 C 241.112 223.500,241.693 224.369,242.364 225.432 C 243.035 226.495,243.846 227.771,244.167 228.268 C 245.674 230.602,249.881 237.159,252.443 241.167 L 253.775 243.250 255.471 243.297 L 257.167 243.345 257.167 231.861 L 257.167 220.376 258.042 220.266 C 258.523 220.205,259.160 220.112,259.458 220.059 L 260.000 219.963 260.000 218.815 L 260.000 217.667 255.333 217.667 L 250.667 217.667 250.667 218.813 L 250.667 219.959 251.923 220.146 C 252.615 220.249,253.327 220.333,253.507 220.333 C 253.827 220.333,253.833 220.504,253.833 228.867 C 253.833 233.759,253.771 237.332,253.687 237.242 C 253.607 237.155,252.435 235.321,251.083 233.167 C 248.596 229.204,248.271 228.687,243.851 221.667 L 241.385 217.750 238.109 217.705 L 234.833 217.660 234.833 218.811 M262.833 218.815 L 262.833 219.963 263.375 220.059 C 263.673 220.112,264.310 220.205,264.792 220.266 L 265.667 220.376 265.667 230.422 L 265.667 240.467 264.875 240.640 C 264.440 240.735,263.802 240.859,263.458 240.914 L 262.833 241.015 262.833 242.174 L 262.833 243.333 272.667 243.333 L 282.500 243.333 282.500 240.167 L 282.500 237.000 281.101 237.000 C 279.493 237.000,279.570 236.922,279.419 238.691 C 279.361 239.365,279.280 240.085,279.237 240.292 L 279.160 240.667 274.247 240.667 L 269.333 240.667 269.333 236.083 L 269.333 231.500 274.083 231.500 L 278.833 231.500 278.833 230.083 L 278.833 228.667 274.083 228.667 L 269.333 228.667 269.333 224.500 L 269.333 220.333 273.984 220.333 L 278.635 220.333 278.731 221.125 C 278.783 221.560,278.874 222.348,278.932 222.875 L 279.038 223.833 280.519 223.833 L 282.000 223.833 282.000 220.750 L 282.000 217.667 272.417 217.667 L 262.833 217.667 262.833 218.815 M223.667 220.550 C 227.192 221.698,229.086 226.296,228.498 232.275 C 227.925 238.088,225.846 240.583,221.575 240.583 C 216.927 240.583,214.347 236.959,214.337 230.417 C 214.325 223.192,218.435 218.846,223.667 220.550 " stroke="none" fill="#24245c" fill-rule="evenodd"></path><path id="path1" d="M187.446 148.276 C 187.384 148.338,187.331 156.045,187.329 165.403 L 187.324 182.417 186.454 181.485 C 185.975 180.973,184.374 179.173,182.896 177.485 C 181.418 175.797,179.930 174.117,179.590 173.750 C 179.249 173.383,178.658 172.710,178.277 172.253 C 177.895 171.796,177.231 171.046,176.801 170.586 C 175.568 169.267,174.438 167.985,174.172 167.602 C 174.038 167.408,173.603 166.912,173.206 166.500 C 172.808 166.087,172.356 165.613,172.200 165.446 C 171.933 165.160,171.914 165.649,171.874 173.917 L 171.830 182.690 172.415 183.404 C 172.737 183.797,173.000 184.204,173.000 184.309 C 173.000 184.414,173.068 184.500,173.152 184.500 C 173.235 184.500,173.723 185.044,174.235 185.708 C 174.747 186.373,175.410 187.223,175.708 187.597 C 176.006 187.971,176.400 188.482,176.583 188.733 C 176.767 188.984,177.078 189.390,177.274 189.636 C 177.471 189.882,179.483 192.408,181.744 195.250 C 184.006 198.092,186.220 200.867,186.664 201.417 C 188.096 203.190,191.192 207.053,192.042 208.128 L 192.869 209.173 196.226 209.128 L 199.583 209.083 199.583 178.667 L 199.583 148.250 193.571 148.206 C 190.265 148.182,187.509 148.213,187.446 148.276 " stroke="none" fill="#242d74" fill-rule="evenodd"></path><path id="path2" d="M115.247 163.333 C 115.247 171.721,115.267 175.152,115.292 170.958 C 115.316 166.765,115.316 159.902,115.292 155.708 C 115.267 151.515,115.247 154.946,115.247 163.333 M265.552 178.824 C 257.221 180.143,252.270 187.499,253.486 196.750 C 254.687 205.884,263.287 211.380,272.667 209.009 C 277.358 207.823,281.989 203.442,282.613 199.602 L 282.710 199.000 277.799 199.000 L 272.887 199.000 272.701 199.408 C 270.584 204.054,262.552 201.797,262.502 196.542 C 262.500 196.377,264.690 196.333,272.902 196.333 L 283.303 196.333 283.421 194.917 C 284.287 184.525,276.103 177.154,265.552 178.824 M246.625 179.124 L 245.500 179.182 245.514 188.883 C 245.525 197.248,245.559 198.515,245.756 198.083 C 245.882 197.808,245.988 197.452,245.992 197.292 C 245.997 197.131,246.079 197.000,246.177 197.000 C 246.274 197.000,246.316 196.941,246.272 196.868 C 246.227 196.796,246.291 196.515,246.414 196.243 C 246.538 195.972,246.769 195.338,246.929 194.833 C 247.089 194.329,247.329 193.654,247.463 193.333 C 247.597 193.012,247.701 192.713,247.694 192.667 C 247.688 192.621,247.798 192.408,247.938 192.194 C 248.078 191.980,248.157 191.768,248.113 191.724 C 248.069 191.680,248.220 191.182,248.450 190.617 C 248.679 190.052,248.894 189.453,248.926 189.286 C 248.958 189.119,249.102 188.747,249.245 188.459 C 249.389 188.171,249.546 187.709,249.595 187.433 C 249.644 187.156,249.747 186.852,249.825 186.757 C 249.902 186.661,250.043 186.321,250.137 186.000 C 250.232 185.679,250.547 184.779,250.837 184.000 C 251.128 183.221,251.425 182.396,251.498 182.167 C 251.572 181.938,251.863 181.131,252.145 180.375 L 252.658 179.000 250.204 179.033 C 248.854 179.051,247.244 179.092,246.625 179.124 M270.674 186.488 C 272.449 187.162,273.631 188.617,273.900 190.458 L 274.004 191.167 268.267 191.167 L 262.531 191.167 262.832 190.172 C 263.821 186.905,267.377 185.235,270.674 186.488 " stroke="none" fill="#243c90" fill-rule="evenodd"></path><path id="path3" d="M126.125 148.287 C 126.423 148.324,126.910 148.324,127.208 148.287 C 127.506 148.250,127.263 148.220,126.667 148.220 C 126.071 148.220,125.827 148.250,126.125 148.287 M156.953 165.208 C 156.878 184.058,156.896 183.724,155.743 187.250 C 154.221 191.901,150.832 194.349,145.117 194.926 C 143.734 195.066,143.710 195.044,146.955 196.651 C 154.447 200.360,160.404 200.918,163.916 198.239 C 166.226 196.477,168.452 190.842,169.080 185.167 C 169.162 184.423,169.475 180.618,169.495 180.121 C 169.498 180.051,170.255 180.932,171.177 182.080 C 172.099 183.228,172.896 184.167,172.947 184.167 C 172.998 184.167,172.769 183.835,172.437 183.430 L 171.833 182.694 171.833 173.910 C 171.833 166.121,171.862 165.149,172.083 165.333 C 172.489 165.670,172.370 165.408,171.875 164.875 C 171.623 164.603,171.004 163.905,170.500 163.322 C 169.424 162.079,168.286 160.785,168.164 160.667 C 168.014 160.521,162.321 154.017,160.439 151.843 C 158.486 149.585,157.193 148.167,157.087 148.167 C 157.051 148.167,156.990 155.835,156.953 165.208 M172.500 165.704 C 172.500 165.746,172.695 165.999,172.933 166.266 C 173.221 166.589,173.307 166.635,173.192 166.403 C 173.026 166.072,172.500 165.540,172.500 165.704 M174.833 168.417 C 175.144 168.737,175.436 169.000,175.482 169.000 C 175.528 169.000,175.311 168.737,175.000 168.417 C 174.689 168.096,174.397 167.833,174.351 167.833 C 174.305 167.833,174.522 168.096,174.833 168.417 M215.374 193.956 L 215.333 208.995 210.708 209.042 L 206.083 209.089 210.714 209.128 C 214.293 209.158,215.362 209.119,215.423 208.958 C 215.467 208.844,215.483 202.037,215.459 193.833 L 215.415 178.917 215.374 193.956 M129.180 196.421 C 129.166 206.012,129.149 205.833,130.059 205.833 C 130.182 205.833,130.417 205.983,130.583 206.167 C 130.749 206.350,130.993 206.500,131.125 206.500 C 131.257 206.500,131.564 206.606,131.808 206.735 C 132.604 207.158,134.181 207.838,134.468 207.882 C 134.623 207.907,134.827 207.974,134.920 208.033 C 135.076 208.130,137.236 208.678,138.417 208.919 C 143.182 209.892,148.179 208.822,155.062 205.354 C 157.637 204.057,157.632 204.135,155.167 203.925 C 151.090 203.578,144.866 201.146,139.110 197.651 C 136.682 196.177,135.613 195.445,134.321 194.375 C 134.072 194.169,133.813 194.000,133.745 194.000 C 133.579 194.000,132.194 192.565,131.628 191.806 C 131.377 191.470,131.058 191.082,130.920 190.944 C 130.781 190.805,130.592 190.517,130.499 190.304 C 130.405 190.091,130.181 189.672,130.001 189.374 C 129.820 189.075,129.679 188.812,129.687 188.790 C 129.695 188.768,129.587 188.487,129.448 188.167 C 129.216 187.634,129.193 188.354,129.180 196.421 M231.458 209.123 C 232.031 209.156,232.969 209.156,233.542 209.123 C 234.115 209.091,233.646 209.064,232.500 209.064 C 231.354 209.064,230.885 209.091,231.458 209.123 " stroke="none" fill="#242464" fill-rule="evenodd"></path><path id="path4" d="M209.316 166.145 C 207.897 166.448,206.494 167.566,205.838 168.918 C 205.401 169.818,205.213 172.052,205.540 172.458 C 205.632 172.573,205.659 172.667,205.599 172.667 C 205.385 172.667,206.024 173.683,206.692 174.405 C 209.047 176.951,214.169 176.314,215.767 173.278 C 216.223 172.412,216.282 170.058,215.871 169.130 C 214.863 166.852,212.037 165.565,209.316 166.145 M206.167 194.000 L 206.167 209.000 210.750 209.000 L 215.333 209.000 215.333 194.000 L 215.333 179.000 210.750 179.000 L 206.167 179.000 206.167 194.000 M220.000 179.128 C 220.000 179.202,220.156 179.709,220.346 180.256 C 221.143 182.550,223.542 189.332,223.910 190.333 C 224.130 190.929,225.183 193.892,226.250 196.917 C 227.318 199.942,228.374 202.923,228.596 203.542 C 229.653 206.485,229.832 206.985,230.167 207.932 L 230.526 208.948 233.540 209.057 C 239.833 209.285,241.963 209.219,242.083 208.792 C 242.140 208.585,242.252 208.267,242.330 208.083 C 242.409 207.900,242.786 206.850,243.170 205.750 C 244.646 201.511,245.219 199.899,245.421 199.417 C 245.747 198.635,245.892 198.030,245.680 198.333 C 245.557 198.509,245.504 195.707,245.503 188.883 L 245.500 179.182 246.625 179.124 C 247.244 179.092,246.648 179.051,245.302 179.033 C 243.955 179.015,242.812 179.066,242.762 179.147 C 242.712 179.228,242.367 180.297,241.996 181.522 C 240.889 185.176,240.317 187.044,240.088 187.750 C 239.969 188.117,239.591 189.354,239.248 190.500 C 238.905 191.646,238.147 194.146,237.562 196.056 C 236.978 197.966,236.500 199.635,236.500 199.765 C 236.500 199.894,236.435 200.000,236.357 200.000 C 236.226 200.000,236.078 199.578,235.422 197.333 C 235.301 196.921,234.925 195.683,234.586 194.583 C 233.289 190.380,231.440 184.310,230.676 181.750 L 229.881 179.083 224.941 179.039 C 222.223 179.015,220.000 179.055,220.000 179.128 " stroke="none" fill="#2c2d75" fill-rule="evenodd"></path><path id="path0" d="M115.333 165.220 C 115.333 175.674,115.398 182.815,115.501 183.613 C 116.762 193.447,119.195 198.402,124.750 202.447 C 125.300 202.847,125.974 203.362,126.249 203.591 C 126.523 203.820,126.954 204.099,127.207 204.211 C 127.460 204.323,127.667 204.471,127.667 204.541 C 127.667 204.610,127.779 204.667,127.917 204.667 C 128.054 204.667,128.167 204.737,128.167 204.822 C 128.167 204.908,128.330 205.029,128.529 205.092 C 128.728 205.156,129.041 205.347,129.225 205.519 C 129.409 205.690,129.597 205.792,129.642 205.747 C 129.688 205.701,129.598 205.570,129.442 205.456 C 129.180 205.264,129.162 204.566,129.204 196.291 C 129.229 191.364,129.189 187.333,129.115 187.333 C 129.041 187.333,129.026 187.260,129.081 187.170 C 129.137 187.080,129.107 186.867,129.016 186.696 C 128.856 186.398,128.707 185.811,128.601 185.067 C 128.574 184.875,128.505 184.643,128.448 184.551 C 128.391 184.459,128.308 184.053,128.263 183.650 C 128.218 183.247,128.104 182.242,128.010 181.417 C 127.905 180.496,127.838 173.797,127.836 164.083 L 127.833 148.250 121.583 148.190 L 115.333 148.130 115.333 165.220 M206.080 194.000 C 206.080 202.296,206.100 205.690,206.125 201.542 C 206.150 197.394,206.150 190.606,206.125 186.458 C 206.100 182.310,206.080 185.704,206.080 194.000 M219.583 217.324 C 214.226 218.216,211.058 222.710,210.875 229.676 C 210.641 238.544,214.482 243.634,221.428 243.661 C 228.330 243.688,232.061 239.106,232.077 230.583 C 232.095 221.245,227.205 216.055,219.583 217.324 M234.833 218.811 L 234.833 219.963 235.375 220.059 C 235.673 220.112,236.310 220.205,236.792 220.266 L 237.667 220.376 237.667 230.426 L 237.667 240.476 236.708 240.663 C 236.181 240.766,235.544 240.890,235.292 240.938 C 234.844 241.024,234.833 241.054,234.833 242.180 L 234.833 243.333 239.500 243.333 L 244.167 243.333 244.167 242.181 L 244.167 241.029 243.458 240.922 C 243.069 240.863,242.356 240.739,241.875 240.646 L 241.000 240.476 241.000 231.988 C 241.000 227.320,241.032 223.500,241.072 223.500 C 241.112 223.500,241.693 224.369,242.364 225.432 C 243.035 226.495,243.846 227.771,244.167 228.268 C 245.674 230.602,249.881 237.159,252.443 241.167 L 253.775 243.250 255.471 243.297 L 257.167 243.345 257.167 231.861 L 257.167 220.376 258.042 220.266 C 258.523 220.205,259.160 220.112,259.458 220.059 L 260.000 219.963 260.000 218.815 L 260.000 217.667 255.333 217.667 L 250.667 217.667 250.667 218.813 L 250.667 219.959 251.923 220.146 C 252.615 220.249,253.327 220.333,253.507 220.333 C 253.827 220.333,253.833 220.504,253.833 228.867 C 253.833 233.759,253.771 237.332,253.687 237.242 C 253.607 237.155,252.435 235.321,251.083 233.167 C 248.596 229.204,248.271 228.687,243.851 221.667 L 241.385 217.750 238.109 217.705 L 234.833 217.660 234.833 218.811 M262.833 218.815 L 262.833 219.963 263.375 220.059 C 263.673 220.112,264.310 220.205,264.792 220.266 L 265.667 220.376 265.667 230.422 L 265.667 240.467 264.875 240.640 C 264.440 240.735,263.802 240.859,263.458 240.914 L 262.833 241.015 262.833 242.174 L 262.833 243.333 272.667 243.333 L 282.500 243.333 282.500 240.167 L 282.500 237.000 281.101 237.000 C 279.493 237.000,279.570 236.922,279.419 238.691 C 279.361 239.365,279.280 240.085,279.237 240.292 L 279.160 240.667 274.247 240.667 L 269.333 240.667 269.333 236.083 L 269.333 231.500 274.083 231.500 L 278.833 231.500 278.833 230.083 L 278.833 228.667 274.083 228.667 L 269.333 228.667 269.333 224.500 L 269.333 220.333 273.984 220.333 L 278.635 220.333 278.731 221.125 C 278.783 221.560,278.874 222.348,278.932 222.875 L 279.038 223.833 280.519 223.833 L 282.000 223.833 282.000 220.750 L 282.000 217.667 272.417 217.667 L 262.833 217.667 262.833 218.815 M223.667 220.550 C 227.192 221.698,229.086 226.296,228.498 232.275 C 227.925 238.088,225.846 240.583,221.575 240.583 C 216.927 240.583,214.347 236.959,214.337 230.417 C 214.325 223.192,218.435 218.846,223.667 220.550 " stroke="none" fill="#24245c" fill-rule="evenodd"></path><path id="path1" d="M187.446 148.276 C 187.384 148.338,187.331 156.045,187.329 165.403 L 187.324 182.417 186.454 181.485 C 185.975 180.973,184.374 179.173,182.896 177.485 C 181.418 175.797,179.930 174.117,179.590 173.750 C 179.249 173.383,178.658 172.710,178.277 172.253 C 177.895 171.796,177.231 171.046,176.801 170.586 C 175.568 169.267,174.438 167.985,174.172 167.602 C 174.038 167.408,173.603 166.912,173.206 166.500 C 172.808 166.087,172.356 165.613,172.200 165.446 C 171.933 165.160,171.914 165.649,171.874 173.917 L 171.830 182.690 172.415 183.404 C 172.737 183.797,173.000 184.204,173.000 184.309 C 173.000 184.414,173.068 184.500,173.152 184.500 C 173.235 184.500,173.723 185.044,174.235 185.708 C 174.747 186.373,175.410 187.223,175.708 187.597 C 176.006 187.971,176.400 188.482,176.583 188.733 C 176.767 188.984,177.078 189.390,177.274 189.636 C 177.471 189.882,179.483 192.408,181.744 195.250 C 184.006 198.092,186.220 200.867,186.664 201.417 C 188.096 203.190,191.192 207.053,192.042 208.128 L 192.869 209.173 196.226 209.128 L 199.583 209.083 199.583 178.667 L 199.583 148.250 193.571 148.206 C 190.265 148.182,187.509 148.213,187.446 148.276 " stroke="none" fill="#242d74" fill-rule="evenodd"></path><path id="path2" d="M115.247 163.333 C 115.247 171.721,115.267 175.152,115.292 170.958 C 115.316 166.765,115.316 159.902,115.292 155.708 C 115.267 151.515,115.247 154.946,115.247 163.333 M265.552 178.824 C 257.221 180.143,252.270 187.499,253.486 196.750 C 254.687 205.884,263.287 211.380,272.667 209.009 C 277.358 207.823,281.989 203.442,282.613 199.602 L 282.710 199.000 277.799 199.000 L 272.887 199.000 272.701 199.408 C 270.584 204.054,262.552 201.797,262.502 196.542 C 262.500 196.377,264.690 196.333,272.902 196.333 L 283.303 196.333 283.421 194.917 C 284.287 184.525,276.103 177.154,265.552 178.824 M246.625 179.124 L 245.500 179.182 245.514 188.883 C 245.525 197.248,245.559 198.515,245.756 198.083 C 245.882 197.808,245.988 197.452,245.992 197.292 C 245.997 197.131,246.079 197.000,246.177 197.000 C 246.274 197.000,246.316 196.941,246.272 196.868 C 246.227 196.796,246.291 196.515,246.414 196.243 C 246.538 195.972,246.769 195.338,246.929 194.833 C 247.089 194.329,247.329 193.654,247.463 193.333 C 247.597 193.012,247.701 192.713,247.694 192.667 C 247.688 192.621,247.798 192.408,247.938 192.194 C 248.078 191.980,248.157 191.768,248.113 191.724 C 248.069 191.680,248.220 191.182,248.450 190.617 C 248.679 190.052,248.894 189.453,248.926 189.286 C 248.958 189.119,249.102 188.747,249.245 188.459 C 249.389 188.171,249.546 187.709,249.595 187.433 C 249.644 187.156,249.747 186.852,249.825 186.757 C 249.902 186.661,250.043 186.321,250.137 186.000 C 250.232 185.679,250.547 184.779,250.837 184.000 C 251.128 183.221,251.425 182.396,251.498 182.167 C 251.572 181.938,251.863 181.131,252.145 180.375 L 252.658 179.000 250.204 179.033 C 248.854 179.051,247.244 179.092,246.625 179.124 M270.674 186.488 C 272.449 187.162,273.631 188.617,273.900 190.458 L 274.004 191.167 268.267 191.167 L 262.531 191.167 262.832 190.172 C 263.821 186.905,267.377 185.235,270.674 186.488 " stroke="none" fill="#243c90" fill-rule="evenodd"></path><path id="path3" d="M126.125 148.287 C 126.423 148.324,126.910 148.324,127.208 148.287 C 127.506 148.250,127.263 148.220,126.667 148.220 C 126.071 148.220,125.827 148.250,126.125 148.287 M156.953 165.208 C 156.878 184.058,156.896 183.724,155.743 187.250 C 154.221 191.901,150.832 194.349,145.117 194.926 C 143.734 195.066,143.710 195.044,146.955 196.651 C 154.447 200.360,160.404 200.918,163.916 198.239 C 166.226 196.477,168.452 190.842,169.080 185.167 C 169.162 184.423,169.475 180.618,169.495 180.121 C 169.498 180.051,170.255 180.932,171.177 182.080 C 172.099 183.228,172.896 184.167,172.947 184.167 C 172.998 184.167,172.769 183.835,172.437 183.430 L 171.833 182.694 171.833 173.910 C 171.833 166.121,171.862 165.149,172.083 165.333 C 172.489 165.670,172.370 165.408,171.875 164.875 C 171.623 164.603,171.004 163.905,170.500 163.322 C 169.424 162.079,168.286 160.785,168.164 160.667 C 168.014 160.521,162.321 154.017,160.439 151.843 C 158.486 149.585,157.193 148.167,157.087 148.167 C 157.051 148.167,156.990 155.835,156.953 165.208 M172.500 165.704 C 172.500 165.746,172.695 165.999,172.933 166.266 C 173.221 166.589,173.307 166.635,173.192 166.403 C 173.026 166.072,172.500 165.540,172.500 165.704 M174.833 168.417 C 175.144 168.737,175.436 169.000,175.482 169.000 C 175.528 169.000,175.311 168.737,175.000 168.417 C 174.689 168.096,174.397 167.833,174.351 167.833 C 174.305 167.833,174.522 168.096,174.833 168.417 M215.374 193.956 L 215.333 208.995 210.708 209.042 L 206.083 209.089 210.714 209.128 C 214.293 209.158,215.362 209.119,215.423 208.958 C 215.467 208.844,215.483 202.037,215.459 193.833 L 215.415 178.917 215.374 193.956 M129.180 196.421 C 129.166 206.012,129.149 205.833,130.059 205.833 C 130.182 205.833,130.417 205.983,130.583 206.167 C 130.749 206.350,130.993 206.500,131.125 206.500 C 131.257 206.500,131.564 206.606,131.808 206.735 C 132.604 207.158,134.181 207.838,134.468 207.882 C 134.623 207.907,134.827 207.974,134.920 208.033 C 135.076 208.130,137.236 208.678,138.417 208.919 C 143.182 209.892,148.179 208.822,155.062 205.354 C 157.637 204.057,157.632 204.135,155.167 203.925 C 151.090 203.578,144.866 201.146,139.110 197.651 C 136.682 196.177,135.613 195.445,134.321 194.375 C 134.072 194.169,133.813 194.000,133.745 194.000 C 133.579 194.000,132.194 192.565,131.628 191.806 C 131.377 191.470,131.058 191.082,130.920 190.944 C 130.781 190.805,130.592 190.517,130.499 190.304 C 130.405 190.091,130.181 189.672,130.001 189.374 C 129.820 189.075,129.679 188.812,129.687 188.790 C 129.695 188.768,129.587 188.487,129.448 188.167 C 129.216 187.634,129.193 188.354,129.180 196.421 M231.458 209.123 C 232.031 209.156,232.969 209.156,233.542 209.123 C 234.115 209.091,233.646 209.064,232.500 209.064 C 231.354 209.064,230.885 209.091,231.458 209.123 " stroke="none" fill="#242464" fill-rule="evenodd"></path><path id="path4" d="M209.316 166.145 C 207.897 166.448,206.494 167.566,205.838 168.918 C 205.401 169.818,205.213 172.052,205.540 172.458 C 205.632 172.573,205.659 172.667,205.599 172.667 C 205.385 172.667,206.024 173.683,206.692 174.405 C 209.047 176.951,214.169 176.314,215.767 173.278 C 216.223 172.412,216.282 170.058,215.871 169.130 C 214.863 166.852,212.037 165.565,209.316 166.145 M206.167 194.000 L 206.167 209.000 210.750 209.000 L 215.333 209.000 215.333 194.000 L 215.333 179.000 210.750 179.000 L 206.167 179.000 206.167 194.000 M220.000 179.128 C 220.000 179.202,220.156 179.709,220.346 180.256 C 221.143 182.550,223.542 189.332,223.910 190.333 C 224.130 190.929,225.183 193.892,226.250 196.917 C 227.318 199.942,228.374 202.923,228.596 203.542 C 229.653 206.485,229.832 206.985,230.167 207.932 L 230.526 208.948 233.540 209.057 C 239.833 209.285,241.963 209.219,242.083 208.792 C 242.140 208.585,242.252 208.267,242.330 208.083 C 242.409 207.900,242.786 206.850,243.170 205.750 C 244.646 201.511,245.219 199.899,245.421 199.417 C 245.747 198.635,245.892 198.030,245.680 198.333 C 245.557 198.509,245.504 195.707,245.503 188.883 L 245.500 179.182 246.625 179.124 C 247.244 179.092,246.648 179.051,245.302 179.033 C 243.955 179.015,242.812 179.066,242.762 179.147 C 242.712 179.228,242.367 180.297,241.996 181.522 C 240.889 185.176,240.317 187.044,240.088 187.750 C 239.969 188.117,239.591 189.354,239.248 190.500 C 238.905 191.646,238.147 194.146,237.562 196.056 C 236.978 197.966,236.500 199.635,236.500 199.765 C 236.500 199.894,236.435 200.000,236.357 200.000 C 236.226 200.000,236.078 199.578,235.422 197.333 C 235.301 196.921,234.925 195.683,234.586 194.583 C 233.289 190.380,231.440 184.310,230.676 181.750 L 229.881 179.083 224.941 179.039 C 222.223 179.015,220.000 179.055,220.000 179.128 " stroke="none" fill="#2c2d75" fill-rule="evenodd"></path></g></svg>