<?xml version="1.0" standalone="no"?>
<!DOCTYPE svg PUBLIC "-//W3C//DTD SVG 20010904//EN"
 "http://www.w3.org/TR/2001/REC-SVG-20010904/DTD/svg10.dtd">
<svg version="1.0" xmlns="http://www.w3.org/2000/svg"
 width="3282.000000pt" height="2071.000000pt" viewBox="0 0 3282.000000 2071.000000"
 preserveAspectRatio="xMidYMid meet">

<g transform="translate(0.000000,2071.000000) scale(0.100000,-0.100000)"
fill="#000000" stroke="none">
<path d="M9627 16309 c-4 -562 -7 -1630 -7 -2373 0 -774 -4 -1443 -10 -1566
-47 -970 -253 -1572 -653 -1908 -306 -258 -699 -402 -1236 -455 l-124 -12 119
-68 c143 -82 620 -319 757 -376 223 -92 656 -216 962 -273 104 -20 153 -23
365 -23 269 0 337 9 525 66 191 59 374 172 487 301 118 136 215 281 277 415
252 551 410 1259 452 2028 6 110 13 224 17 253 l7 54 1824 -2281 1825 -2281
523 0 523 0 0 4750 0 4750 -945 0 -945 0 -2 -2687 -3 -2688 -465 530 c-499
569 -4248 4845 -4260 4858 -4 4 -10 -452 -13 -1014z"/>
<path d="M3103 14738 c3 -1789 8 -2613 15 -2703 45 -520 90 -819 177 -1170
182 -741 505 -1336 930 -1716 567 -507 1170 -889 1747 -1108 615 -233 1253
-304 1837 -206 450 77 880 241 1609 617 l242 125 -132 6 c-654 33 -1524 327
-2388 810 -460 257 -744 447 -1110 741 -175 141 -277 241 -393 386 -121 151
-169 223 -235 355 -202 405 -320 927 -352 1560 -6 122 -10 1109 -10 2538 l0
2337 -971 0 -970 0 4 -2572z"/>
<path d="M17876 14519 c-109 -14 -184 -37 -281 -84 -212 -103 -363 -290 -410
-508 -26 -117 -17 -314 18 -423 59 -178 206 -343 394 -437 28 -15 91 -39 140
-53 120 -36 344 -45 478 -19 310 58 546 266 627 552 31 111 31 296 -1 407
-111 396 -501 624 -965 565z"/>
<path d="M26855 12554 c-489 -38 -871 -161 -1216 -390 -502 -334 -834 -885
-933 -1551 -69 -455 -31 -949 104 -1355 108 -325 270 -595 499 -832 368 -379
826 -595 1408 -662 173 -20 575 -14 728 10 884 143 1544 699 1788 1504 l25 82
-763 0 -763 0 -32 -57 c-110 -194 -263 -312 -475 -365 -126 -31 -342 -31 -466
-1 -287 72 -505 273 -599 554 -24 71 -60 244 -60 289 l0 30 1619 0 1619 0 5
23 c13 51 28 391 23 502 -22 406 -92 702 -236 1002 -324 672 -931 1094 -1725
1198 -117 15 -450 27 -550 19z m335 -1159 c407 -62 674 -333 706 -716 l7 -79
-897 0 -896 0 0 23 c0 42 51 212 85 284 175 371 552 556 995 488z"/>
<path d="M17300 10150 l0 -2340 715 0 715 0 0 2340 0 2340 -715 0 -715 0 0
-2340z"/>
<path d="M19463 12478 c2 -7 186 -524 407 -1148 222 -624 593 -1670 826 -2325
l422 -1190 884 -3 884 -2 831 2340 830 2340 -763 0 -763 0 -25 -82 c-14 -46
-239 -787 -501 -1648 -261 -861 -478 -1572 -481 -1580 -6 -13 -7 -13 -12 0 -4
8 -231 755 -507 1660 l-500 1645 -769 3 c-613 2 -767 0 -763 -10z"/>
<path d="M19513 6519 c-767 -74 -1307 -645 -1452 -1536 -57 -351 -50 -814 19
-1148 84 -409 252 -738 504 -991 215 -215 444 -341 732 -404 366 -79 811 -32
1115 120 505 252 810 752 905 1485 21 159 24 637 6 790 -69 565 -235 959 -531
1256 -261 261 -555 394 -951 429 -129 11 -227 11 -347 -1z m383 -464 c114 -18
248 -65 339 -118 139 -81 297 -260 385 -437 46 -91 114 -305 140 -435 62 -323
68 -795 14 -1125 -59 -359 -169 -610 -351 -800 -185 -194 -410 -282 -723 -283
-289 0 -496 78 -688 258 -240 226 -392 598 -433 1065 -15 172 -6 577 16 715
105 666 420 1074 893 1159 103 19 296 19 408 1z"/>
<path d="M21780 6295 c0 -173 0 -175 23 -180 12 -3 103 -18 202 -35 99 -17
190 -33 203 -35 l22 -5 -2 -1578 -3 -1577 -150 -26 c-82 -15 -183 -32 -222
-39 l-73 -12 0 -174 0 -174 720 0 720 0 0 174 0 173 -167 27 c-93 14 -203 31
-245 38 l-78 12 0 1358 c0 747 3 1358 8 1357 4 0 459 -705 1012 -1567 l1006
-1567 252 -3 252 -2 0 1789 c0 1696 1 1790 18 1795 9 2 87 16 172 31 85 14
179 30 208 36 l52 10 0 175 0 174 -720 0 -720 0 0 -175 c0 -173 0 -175 23
-180 12 -3 112 -19 222 -35 110 -17 210 -33 223 -36 l22 -4 0 -1346 c0 -1072
-3 -1345 -12 -1342 -7 3 -454 705 -992 1561 l-980 1557 -498 0 -498 0 0 -175z"/>
<path d="M26160 6295 c0 -173 0 -175 23 -180 12 -2 103 -18 202 -35 99 -17
190 -32 203 -35 l22 -5 0 -1578 0 -1578 -102 -17 c-57 -10 -158 -27 -225 -39
l-123 -21 0 -174 0 -173 1530 0 1530 0 0 480 0 480 -218 0 -219 0 -29 -272
-30 -273 -787 -3 -787 -2 2 722 3 723 738 3 737 2 0 215 0 215 -740 0 -740 0
0 650 0 650 743 0 743 0 29 -270 29 -270 218 0 218 0 0 480 0 480 -1485 0
-1485 0 0 -175z"/>
</g>
</svg>
